<?xml version="1.0" encoding="iso-8859-1"?>
<!-- Uploaded to: SVG Repo, www.svgrepo.com, Generator: SVG Repo Mixer Tools -->
<svg height="800px" width="800px" version="1.1" id="Layer_1" xmlns="http://www.w3.org/2000/svg" xmlns:xlink="http://www.w3.org/1999/xlink" 
	 viewBox="0 0 512 512" xml:space="preserve">
<g>
	<g>
		<path style="fill:#E57C1A;" d="M42.274,293.034l3.293,1.412c21.636,9.269,46.124,9.269,67.761,0l3.293-1.412l16.561-125.837
			c4.273-32.459-20.992-61.263-53.734-61.263s-57.997,28.804-53.734,61.263L42.274,293.034z"/>
		<path style="fill:#E57C1A;" d="M218.825,293.034l3.302,1.412c21.628,9.269,46.124,9.269,67.752,0l3.293-1.412l16.561-125.837
			c4.273-32.459-20.992-61.263-53.734-61.263s-57.997,28.804-53.734,61.263L218.825,293.034z"/>
		<path style="fill:#E57C1A;" d="M395.377,293.033l3.293,1.412c21.636,9.269,46.124,9.269,67.761,0l3.293-1.412l16.561-125.837
			c4.273-32.459-20.992-61.263-53.734-61.263s-57.997,28.804-53.734,61.263L395.377,293.033z"/>
	</g>
	<path style="fill:#9E5A23;" d="M512,512H0V282.483c11.644,0,23.172,2.366,33.88,6.956l11.688,5.005
		c21.636,9.278,46.124,9.278,67.761,0l11.688-5.005c10.708-4.59,22.228-6.956,33.88-6.956h17.655c11.652,0,23.172,2.366,33.88,6.956
		l11.688,5.005c21.636,9.278,46.124,9.269,67.761,0l11.679-5.005c10.708-4.59,22.237-6.956,33.889-6.956h17.664
		c11.644,0,23.172,2.366,33.88,6.956l11.679,5.005c21.636,9.269,46.124,9.269,67.761,0l11.688-5.005
		c10.708-4.59,22.228-6.956,33.88-6.956l0,0V512z"/>
	<path style="fill:#A4E869;" d="M273.655,65.275c0,14.345-3.019,28.434-8.633,41.481c6.727,1.13,13.03,3.416,18.644,6.762
		c11.997-12.579,25.3-40.881,25.3-104.686L271.36,38.907c1.439,6.965,2.295,14.045,2.295,21.204V65.275z"/>
	<path style="fill:#659C35;" d="M256,105.931c3.098,0,6.1,0.335,9.048,0.83c5.605-13.056,8.607-27.145,8.607-41.49v-5.164
		c0-16.305-3.796-32.388-11.087-46.972L256,0l-6.568,13.135c-7.292,14.583-11.087,30.667-11.087,46.972v5.164
		c0,14.345,3.001,28.434,8.607,41.49C249.9,106.266,252.902,105.931,256,105.931"/>
	<g>
		<path style="fill:#A4E869;" d="M246.978,106.756c-5.614-13.056-8.633-27.136-8.633-41.481v-5.164
			c0-7.159,0.856-14.239,2.295-21.204L203.034,8.823c0,63.815,13.303,92.116,25.3,104.695
			C233.949,110.173,240.252,107.886,246.978,106.756"/>
		<path style="fill:#A4E869;" d="M97.103,65.275c0,14.345-3.019,28.434-8.633,41.481c6.727,1.13,13.03,3.416,18.644,6.762
			c11.997-12.579,25.3-40.881,25.3-104.686L94.808,38.907c1.439,6.965,2.295,14.045,2.295,21.204V65.275z"/>
	</g>
	<path style="fill:#659C35;" d="M79.448,105.931c3.098,0,6.1,0.335,9.048,0.83c5.606-13.056,8.607-27.145,8.607-41.49v-5.164
		c0-16.305-3.796-32.388-11.087-46.972L79.448,0l-6.568,13.135c-7.292,14.583-11.087,30.667-11.087,46.972v5.164
		c0,14.345,3.001,28.434,8.607,41.49C73.348,106.266,76.35,105.931,79.448,105.931"/>
	<g>
		<path style="fill:#A4E869;" d="M70.426,106.756C64.812,93.7,61.793,79.62,61.793,65.276v-5.164c0-7.159,0.856-14.239,2.295-21.204
			L26.483,8.823c0,63.815,13.303,92.116,25.3,104.695C57.397,110.173,63.7,107.886,70.426,106.756"/>
		<path style="fill:#A4E869;" d="M450.207,65.275c0,14.345-3.019,28.434-8.633,41.481c6.727,1.13,13.03,3.416,18.644,6.762
			c11.997-12.579,25.3-40.881,25.3-104.686l-37.605,30.076c1.439,6.965,2.295,14.045,2.295,21.204V65.275z"/>
	</g>
	<path style="fill:#659C35;" d="M432.552,105.931c3.098,0,6.1,0.335,9.048,0.83c5.605-13.056,8.607-27.145,8.607-41.49v-5.164
		c0-16.305-3.796-32.388-11.087-46.972L432.552,0l-6.568,13.135c-7.292,14.583-11.087,30.667-11.087,46.972v5.164
		c0,14.345,3.001,28.434,8.607,41.49C426.452,106.266,429.453,105.931,432.552,105.931"/>
	<path style="fill:#A4E869;" d="M423.53,106.756c-5.614-13.056-8.633-27.136-8.633-41.481v-5.164c0-7.159,0.856-14.239,2.295-21.204
		L379.586,8.823c0,63.815,13.303,92.116,25.3,104.695C410.5,110.173,416.803,107.886,423.53,106.756"/>
	<g>
		<path style="fill:#723C13;" d="M229.517,335.448h-44.138c-4.882,0-8.828-3.946-8.828-8.828c0-4.882,3.946-8.828,8.828-8.828
			h44.138c4.882,0,8.828,3.946,8.828,8.828C238.345,331.502,234.399,335.448,229.517,335.448"/>
		<path style="fill:#723C13;" d="M167.724,397.241H97.103c-4.882,0-8.828-3.946-8.828-8.828c0-4.882,3.946-8.828,8.828-8.828h70.621
			c4.882,0,8.828,3.946,8.828,8.828C176.552,393.295,172.606,397.241,167.724,397.241"/>
		<path style="fill:#723C13;" d="M353.103,370.759H256c-4.882,0-8.828-3.946-8.828-8.828c0-4.882,3.946-8.828,8.828-8.828h97.103
			c4.882,0,8.828,3.946,8.828,8.828C361.931,366.813,357.985,370.759,353.103,370.759"/>
		<path style="fill:#723C13;" d="M441.379,414.897h-97.103c-4.882,0-8.828-3.946-8.828-8.828c0-4.882,3.946-8.828,8.828-8.828
			h97.103c4.882,0,8.828,3.946,8.828,8.828C450.207,410.951,446.261,414.897,441.379,414.897"/>
		<path style="fill:#723C13;" d="M264.828,432.552h-61.793c-4.882,0-8.828-3.946-8.828-8.828c0-4.882,3.946-8.828,8.828-8.828
			h61.793c4.882,0,8.828,3.946,8.828,8.828C273.655,428.606,269.709,432.552,264.828,432.552"/>
		<path style="fill:#723C13;" d="M317.793,476.69h-70.621c-4.882,0-8.828-3.946-8.828-8.828c0-4.882,3.946-8.828,8.828-8.828h70.621
			c4.882,0,8.828,3.946,8.828,8.828C326.621,472.744,322.675,476.69,317.793,476.69"/>
		<path style="fill:#723C13;" d="M467.862,485.517h-79.448c-4.882,0-8.828-3.946-8.828-8.828c0-4.882,3.946-8.828,8.828-8.828
			h79.448c4.882,0,8.828,3.946,8.828,8.828C476.69,481.571,472.744,485.517,467.862,485.517"/>
		<path style="fill:#723C13;" d="M88.276,344.276c4.882,0,8.828-3.946,8.828-8.828c0-4.882-3.946-8.828-8.828-8.828H0v17.655H88.276
			z"/>
		<path style="fill:#723C13;" d="M44.138,423.724c4.882,0,8.828-3.946,8.828-8.828c0-4.882-3.946-8.828-8.828-8.828H0v17.655H44.138
			z"/>
		<path style="fill:#723C13;" d="M114.759,476.69c4.882,0,8.828-3.946,8.828-8.828c0-4.882-3.946-8.828-8.828-8.828H0v17.655
			H114.759z"/>
		<path style="fill:#723C13;" d="M441.379,353.103c-4.882,0-8.828,3.946-8.828,8.828c0,4.882,3.946,8.828,8.828,8.828H512v-17.655
			H441.379z"/>
		<path style="fill:#723C13;" d="M459.034,432.552c-4.882,0-8.828,3.946-8.828,8.828c0,4.882,3.946,8.828,8.828,8.828H512v-17.655
			H459.034z"/>
	</g>
	<g>
		<path style="fill:#D25B13;" d="M88.276,158.897c-4.882,0-8.828,3.946-8.828,8.828s3.946,8.828,8.828,8.828h43.67l1.236-9.357
			c0.353-2.719,0.433-5.402,0.388-8.068c-0.397-0.053-0.742-0.23-1.156-0.23H88.276z"/>
		<path style="fill:#D25B13;" d="M124.949,229.75c-0.397-0.053-0.75-0.23-1.156-0.23H88.279c-4.882,0-8.828,3.946-8.828,8.828
			c0,4.873,3.946,8.828,8.828,8.828h34.375L124.949,229.75z"/>
		<path style="fill:#D25B13;" d="M70.621,194.207H30.429c-0.397,0-0.742,0.177-1.13,0.23l2.295,17.426h39.027
			c4.882,0,8.828-3.946,8.828-8.828S75.502,194.207,70.621,194.207"/>
		<path style="fill:#D25B13;" d="M264.828,158.897c-4.882,0-8.828,3.946-8.828,8.828s3.946,8.828,8.828,8.828h43.67l1.236-9.357
			c0.353-2.719,0.433-5.402,0.388-8.068c-0.397-0.053-0.742-0.23-1.156-0.23H264.828z"/>
		<path style="fill:#D25B13;" d="M301.501,229.75c-0.397-0.053-0.75-0.23-1.156-0.23h-35.513c-4.882,0-8.828,3.946-8.828,8.828
			c0,4.873,3.946,8.828,8.828,8.828h34.375L301.501,229.75z"/>
		<path style="fill:#D25B13;" d="M247.172,211.862c4.882,0,8.828-3.946,8.828-8.828s-3.946-8.828-8.828-8.828H206.98
			c-0.397,0-0.742,0.177-1.13,0.23l2.295,17.426H247.172z"/>
		<path style="fill:#D25B13;" d="M441.379,158.897c-4.882,0-8.828,3.946-8.828,8.828s3.946,8.828,8.828,8.828h43.67l1.236-9.357
			c0.353-2.719,0.433-5.402,0.388-8.068c-0.397-0.053-0.742-0.23-1.156-0.23H441.379z"/>
		<path style="fill:#D25B13;" d="M478.053,229.75c-0.397-0.053-0.75-0.23-1.156-0.23h-35.513c-4.882,0-8.828,3.946-8.828,8.828
			c0,4.873,3.946,8.828,8.828,8.828h34.375L478.053,229.75z"/>
		<path style="fill:#D25B13;" d="M423.724,211.862c4.882,0,8.828-3.946,8.828-8.828s-3.946-8.828-8.828-8.828h-40.192
			c-0.397,0-0.742,0.177-1.13,0.23l2.295,17.426H423.724z"/>
	</g>
</g>
</svg>