<?xml version="1.0" encoding="iso-8859-1"?>
<!-- Uploaded to: SVG Repo, www.svgrepo.com, Generator: SVG Repo Mixer Tools -->
<svg height="800px" width="800px" version="1.1" id="Layer_1" xmlns="http://www.w3.org/2000/svg" xmlns:xlink="http://www.w3.org/1999/xlink" 
	 viewBox="0 0 512 512" xml:space="preserve">
<circle style="fill:#71E2F0;" cx="256" cy="256" r="256"/>
<g>
	<polygon style="fill:#386895;" points="125.666,218.526 160.008,252.868 160.008,214.169 	"/>
	<path style="fill:#386895;" d="M511.178,235.451l-97.189-97.189C354.388,230.184,245.6,269.808,168.081,345.643
		c-1.115,1.115,2.786,7.33,1.767,8.649L319.61,504.029C430.221,475.746,512,375.425,512,256
		C512,249.082,511.716,242.231,511.178,235.451z"/>
</g>
<path style="fill:#E87E70;" d="M321.507,201.859c-12.01-18.954-6.382-44.056,12.571-56.067c13.105-8.304,46.887-6.718,66.488-4.948
	c7.606,0.686,12.495,8.402,9.869,15.574c-6.768,18.48-19.758,49.707-32.863,58.011C358.619,226.442,333.517,220.813,321.507,201.859
	z"/>
<path style="fill:#D8D8D8;" d="M355.906,229.347c-16.327,0-32.313-8.092-41.681-22.874l0,0
	c-14.536-22.938-7.699-53.424,15.239-67.962c11.674-7.397,35.859-9.506,71.877-6.251c6.313,0.569,11.881,3.968,15.276,9.325
	c3.394,5.356,4.091,11.843,1.912,17.796c-12.441,33.961-24.669,54.931-36.345,62.33C374.031,226.88,364.915,229.347,355.906,229.347
	z M328.788,197.244c9.447,14.91,29.263,19.353,44.17,9.906c7.923-5.018,18.908-25.093,29.384-53.694
	c0.443-1.207,0.012-2.174-0.286-2.641c-0.297-0.467-0.983-1.267-2.263-1.384c-30.336-2.738-53.176-1.376-61.097,3.644
	C323.784,162.521,319.34,182.337,328.788,197.244L328.788,197.244z"/>
<path style="fill:#FFAD9E;" d="M190.493,201.859c12.01-18.954,6.382-44.054-12.571-56.067c-13.105-8.304-46.887-6.716-66.489-4.948
	c-7.606,0.686-12.495,8.402-9.869,15.574c6.768,18.48,19.758,49.707,32.863,58.011C153.381,226.44,178.483,220.812,190.493,201.859z
	"/>
<g>
	<path style="fill:#FFFFFF;" d="M156.096,229.347c-9.013,0-18.125-2.467-26.283-7.637c-11.674-7.399-23.904-28.369-36.343-62.326
		c-2.179-5.954-1.481-12.441,1.912-17.798c3.396-5.356,8.963-8.756,15.274-9.325c36.023-3.25,60.202-1.15,71.878,6.251
		c22.938,14.536,29.774,45.022,15.239,67.96v0.002C188.407,221.251,172.418,229.347,156.096,229.347z M140.271,148.04
		c-8.294,0-17.744,0.459-28.063,1.389c-1.279,0.116-1.967,0.917-2.263,1.384c-0.298,0.467-0.729,1.434-0.286,2.643
		c10.476,28.601,21.461,48.673,29.382,53.693c7.221,4.575,15.798,6.07,24.136,4.198c8.344-1.87,15.458-6.878,20.035-14.1l0,0
		c9.447-14.91,5.005-34.726-9.904-44.172C168.081,149.761,156.357,148.04,140.271,148.04z"/>
	<path style="fill:#FFFFFF;" d="M138.383,257.915c0,95.266,52.658,127.148,117.617,127.148s117.617-31.882,117.617-127.148
		S320.958,121.766,256,121.766S138.383,162.647,138.383,257.915z"/>
</g>
<path style="fill:#D8D8D8;" d="M256,121.766c-0.193,0-0.381,0.01-0.574,0.012v263.277c0.193,0,0.381,0.009,0.574,0.009
	c64.958,0,117.617-31.882,117.617-127.148S320.958,121.766,256,121.766z"/>
<ellipse style="fill:#FFAD9E;" cx="256" cy="316.388" rx="87.616" ry="56.523"/>
<path style="fill:#E87E70;" d="M256,259.863c-0.193,0-0.381,0.009-0.574,0.009v113.03c0.193,0,0.381,0.009,0.574,0.009
	c48.388,0,87.614-25.307,87.614-56.523S304.388,259.863,256,259.863z"/>
<g>
	<circle style="fill:#FF6262;" cx="210.972" cy="316.388" r="11.864"/>
	<circle style="fill:#FF6262;" cx="301.028" cy="316.388" r="11.864"/>
</g>
<g>
	<path style="fill:#3A3A3A;" d="M138.826,243.757c122.604,22.787,79.389-72.232,59.002-108.466
		C165.024,152.783,142.115,187.852,138.826,243.757z"/>
	<path style="fill:#3A3A3A;" d="M373.174,243.757c-122.604,22.787-79.389-72.232-59.002-108.466
		C346.976,152.783,369.885,187.852,373.174,243.757z"/>
</g>
<g>
	<circle style="fill:#FFFFFF;" cx="192.577" cy="220.108" r="5.932"/>
	<circle style="fill:#FFFFFF;" cx="319.422" cy="220.108" r="5.932"/>
</g>
</svg>