<?xml version="1.0" encoding="iso-8859-1"?>
<!-- Uploaded to: SVG Repo, www.svgrepo.com, Generator: SVG Repo Mixer Tools -->
<!DOCTYPE svg PUBLIC "-//W3C//DTD SVG 1.1//EN" "http://www.w3.org/Graphics/SVG/1.1/DTD/svg11.dtd">
<svg fill="#000000" version="1.1" id="Capa_1" xmlns="http://www.w3.org/2000/svg" xmlns:xlink="http://www.w3.org/1999/xlink" 
	 width="800px" height="800px" viewBox="0 0 64.86 64.86" xml:space="preserve"
	>
<g>
	<g>
		<path d="M63.459,17.738L33.575,2.689c-0.721-0.362-1.566-0.362-2.288,0L1.401,17.738c-1.256,0.632-1.76,2.161-1.129,3.416
			c0.633,1.255,2.162,1.76,3.416,1.128L32.43,7.811l28.744,14.473c0.365,0.185,0.756,0.272,1.141,0.272
			c0.933,0,1.826-0.513,2.273-1.4C65.221,19.899,64.715,18.371,63.459,17.738z"/>
		<path d="M24.1,33.438h16.66c0.146,0,0.289-0.017,0.433-0.041l5.84-6.131c-0.431-1.629-1.562-3.127-3.306-4.32
			c-1.805-1.238-4.055-1.977-6.02-1.977c-1.23,0-2.465,0.297-3.566,0.859c-0.466,0.237-0.91,0.523-1.321,0.853
			c-0.254,0.069-0.521,0.07-0.776,0c-0.413-0.33-0.855-0.615-1.321-0.854c-1.102-0.562-2.336-0.859-3.568-0.859
			c-1.965,0-4.213,0.739-6.018,1.978c-1.742,1.193-2.876,2.691-3.305,4.318l5.84,6.133C23.811,33.422,23.953,33.438,24.1,33.438z"/>
		<path d="M40.442,34.992H24.418c-4.208,0-7.631,3.422-7.631,7.631v12.188c0,4.208,3.423,7.631,7.631,7.631h16.024
			c4.207,0,7.631-3.423,7.631-7.631V42.623C48.073,38.414,44.651,34.992,40.442,34.992z M33.675,40.408
			c0.028-0.05,0.083-0.078,0.142-0.078c0.057,0,0.109,0.027,0.139,0.078c0.068,0.114,1.681,2.807,1.681,3.812
			c0,1.062-0.814,1.926-1.816,1.926c-0.467,0-0.91-0.186-1.25-0.523c-0.367-0.367-0.569-0.863-0.569-1.398
			C31.997,43.215,33.606,40.522,33.675,40.408z M30.43,43.651c0.03-0.049,0.083-0.077,0.141-0.077c0.059,0,0.111,0.028,0.141,0.079
			c0.068,0.113,1.678,2.806,1.678,3.812c0,1.062-0.815,1.929-1.818,1.929c-0.467,0-0.909-0.188-1.248-0.522
			c-0.368-0.367-0.57-0.865-0.57-1.399C28.752,46.459,30.362,43.768,30.43,43.651z M27.186,46.896
			c0.029-0.049,0.083-0.079,0.141-0.079c0.057,0,0.111,0.03,0.141,0.08c0.067,0.113,1.677,2.806,1.677,3.812
			c0,1.062-0.815,1.929-1.818,1.929c-0.466,0-0.908-0.188-1.248-0.524c-0.367-0.365-0.57-0.863-0.57-1.398
			C25.507,49.703,27.118,47.012,27.186,46.896z M27.586,54.949l-2.047,2.049c-0.384,0.383-1.006,0.383-1.391,0
			c-0.383-0.385-0.383-1.008,0-1.392l2.048-2.047c0.384-0.386,1.006-0.386,1.39,0C27.971,53.944,27.971,54.565,27.586,54.949z
			 M34.248,53.961c-0.113,0.066-2.805,1.679-3.812,1.678c-0.535,0-1.032-0.201-1.4-0.569c-0.338-0.339-0.524-0.782-0.524-1.248
			c0-1.003,0.864-1.817,1.926-1.817c1.007,0,3.699,1.608,3.812,1.68c0.051,0.025,0.078,0.083,0.078,0.141
			C34.328,53.877,34.299,53.932,34.248,53.961z M37.494,50.717c-0.115,0.068-2.809,1.678-3.813,1.678
			c-0.535,0-1.032-0.202-1.399-0.57c-0.34-0.339-0.525-0.781-0.525-1.248c0-1.002,0.863-1.815,1.926-1.815
			c1.006,0,3.698,1.606,3.812,1.678c0.052,0.026,0.08,0.084,0.08,0.144C37.573,50.634,37.543,50.687,37.494,50.717z M40.739,47.473
			c-0.115,0.068-2.808,1.677-3.812,1.677c-0.537,0-1.033-0.202-1.401-0.569c-0.339-0.34-0.522-0.78-0.522-1.248
			c0-1.002,0.862-1.815,1.926-1.815c1.008,0,3.696,1.606,3.812,1.678c0.049,0.029,0.078,0.083,0.078,0.142
			C40.819,47.39,40.787,47.442,40.739,47.473z M39.485,44.232c-0.75,0.751-1.938,0.785-2.646,0.075
			c-0.709-0.708-0.678-1.896,0.074-2.646c0.711-0.711,3.752-1.479,3.883-1.513c0.111-0.024,0.227,0.087,0.197,0.199
			C40.963,40.479,40.198,43.521,39.485,44.232z"/>
	</g>
</g>
</svg>